<svg width="1181" height="153" viewBox="0 0 1181 153" fill="none" xmlns="http://www.w3.org/2000/svg">
<path d="M45.1649 24.9411H82.496L122.38 81.6798L141.045 55.1487L107.859 7.91625C104.411 3.01414 98.8407 0.0993671 92.8731 0H10.5525C2.03196 0 -2.97427 9.57237 1.93248 16.5612L85.0488 134.742L103.714 108.211L45.1318 24.908L45.1649 24.9411Z" fill="#444444"/>
<path d="M200.457 0C194.489 0.0993671 188.919 3.01414 185.471 7.91625L152.284 55.1156L170.95 81.6466L210.834 24.908H248.165L189.582 108.211L208.248 134.742L291.364 16.5612C296.304 9.60549 291.298 0 282.777 0H200.457Z" fill="#444444"/>
<path d="M90.486 143.122H122.579C125.364 143.122 128.414 142.194 130.005 139.909L146.681 116.226L163.026 139.478C164.618 141.764 167.999 143.122 170.784 143.122H202.91L146.681 63.0981L90.486 143.122Z" fill="#444444"/>
<path d="M90.4844 143.122H122.577C125.362 143.122 128.412 142.194 130.004 139.909L146.68 116.226L163.025 139.478C164.616 141.764 167.998 143.122 170.783 143.122H202.909L146.68 63.0981L90.4844 143.122Z" fill="#820AD1"/>
<path d="M431.2 34.6957L401.968 124.597H386.67L370.13 69.0939L353.5 124.597H338.202L309 34.6957H327.448L346.442 92.8032L362.86 34.6957H377.249L393.668 92.894L412.903 34.6957H431.23H431.2Z" fill="#444444"/>
<path d="M499.54 92.1067C499.54 96.9818 498.631 101.494 496.844 105.642C495.057 109.79 492.573 113.394 489.422 116.422C486.272 119.45 482.576 121.842 478.335 123.628C474.094 125.385 469.581 126.263 464.794 126.263C460.008 126.263 455.495 125.385 451.314 123.628C447.104 121.872 443.438 119.45 440.288 116.391C437.137 113.333 434.653 109.699 432.866 105.551C431.079 101.403 430.17 96.9213 430.17 92.137C430.17 87.3528 431.079 82.9924 432.927 78.8138C434.774 74.6654 437.258 71.0318 440.409 67.9129C443.559 64.7941 447.225 62.3717 451.435 60.6154C455.616 58.8592 460.099 57.9811 464.825 57.9811C469.55 57.9811 474.124 58.8592 478.365 60.6154C482.606 62.3717 486.302 64.7638 489.452 67.8221C492.603 70.8804 495.087 74.4837 496.874 78.6624C498.661 82.8713 499.57 87.3528 499.57 92.137L499.54 92.1067ZM483.364 92.1067C483.364 89.321 482.879 86.7472 481.91 84.355C480.94 81.9629 479.607 79.8736 477.941 78.0568C476.275 76.2703 474.306 74.8471 472.065 73.8479C469.823 72.8486 467.43 72.3339 464.885 72.3339C462.341 72.3339 459.948 72.8486 457.706 73.8479C455.464 74.8471 453.495 76.2703 451.829 78.0568C450.163 79.8433 448.83 81.9629 447.861 84.355C446.891 86.7472 446.407 89.3513 446.407 92.1067C446.407 94.8622 446.891 97.4663 447.861 99.8584C448.83 102.251 450.163 104.34 451.829 106.157C453.495 107.974 455.464 109.366 457.706 110.366C459.948 111.365 462.341 111.88 464.885 111.88C467.43 111.88 469.823 111.365 472.065 110.366C474.306 109.366 476.275 107.943 477.941 106.157C479.638 104.37 480.94 102.251 481.91 99.8584C482.879 97.4663 483.364 94.8622 483.364 92.1067Z" fill="#444444"/>
<path d="M556.308 66.3687L547.644 80.0855C546.069 78.3596 544.342 76.8456 542.404 75.5435C540.495 74.2415 538.557 73.5753 536.618 73.5753C535.558 73.5753 534.437 73.8176 533.195 74.302C531.953 74.7865 530.802 75.6041 529.711 76.7245C528.621 77.8448 527.712 79.3285 526.955 81.1756C526.197 83.0227 525.834 85.2634 525.834 87.9886V124.628H509.658V59.6768H525.834V66.6412C527.772 63.8554 529.923 61.7358 532.286 60.2218C534.649 58.7381 537.284 57.9811 540.223 57.9811C543.161 57.9811 545.857 58.7381 548.583 60.2824C551.31 61.8266 553.885 63.8554 556.278 66.3989L556.308 66.3687Z" fill="#444444"/>
<path d="M622.073 152.788H605.897V121.327C603.807 123.053 601.504 124.294 598.99 125.082C596.476 125.869 593.84 126.263 591.053 126.263C586.479 126.263 582.299 125.354 578.452 123.507C574.605 121.66 571.333 119.207 568.546 116.089C565.759 112.97 563.609 109.366 562.094 105.248C560.549 101.13 559.792 96.7699 559.792 92.2279C559.792 87.3528 560.67 82.841 562.427 78.6927C564.184 74.5443 566.517 70.9107 569.455 67.8524C572.363 64.7941 575.725 62.3717 579.451 60.6154C583.208 58.8592 587.055 57.9811 591.023 57.9811C593.81 57.9811 596.506 58.3444 599.111 59.1014C601.747 59.8584 603.988 60.888 605.867 62.2506V59.5556H622.043V152.818L622.073 152.788ZM605.988 107.277V76.1491C604.473 74.9379 602.595 73.9992 600.353 73.2725C598.081 72.5761 596.112 72.2127 594.386 72.2127C591.69 72.2127 589.206 72.6669 586.994 73.6056C584.783 74.5443 582.844 75.8766 581.178 77.6631C579.512 79.4194 578.24 81.539 577.331 84.0219C576.422 86.5049 575.968 89.2604 575.968 92.349C575.968 95.1953 576.422 97.8297 577.331 100.282C578.24 102.705 579.482 104.824 581.057 106.581C582.632 108.337 584.541 109.699 586.752 110.668C588.963 111.637 591.387 112.122 594.022 112.122C598.324 112.122 602.292 110.517 605.988 107.277Z" fill="#444444"/>
<path d="M720.1 108.397C715.616 113.878 710.164 118.208 703.742 121.418C697.32 124.628 690.261 126.263 682.537 126.263C675.872 126.263 669.602 125.051 663.756 122.599C657.909 120.146 652.82 116.846 648.488 112.667C644.156 108.458 640.764 103.553 638.249 97.8902C635.765 92.2279 634.493 86.1416 634.493 79.6313C634.493 73.1211 635.735 67.0348 638.249 61.3724C640.733 55.7101 644.156 50.7744 648.488 46.5352C652.82 42.296 657.909 38.9955 663.756 36.6033C669.602 34.2112 675.872 33 682.537 33C690.261 33 697.32 34.6049 703.742 37.8448C710.164 41.0545 715.495 45.2634 719.766 50.4413L707.74 62.7956C704.953 58.8289 701.379 55.6192 697.017 53.1968C692.624 50.7744 687.808 49.5329 682.567 49.5329C678.357 49.5329 674.418 50.3505 670.693 51.9553C666.997 53.5602 663.756 55.7404 660.969 58.4656C658.182 61.1908 656.001 64.3702 654.395 68.0038C652.79 71.6374 651.972 75.5132 651.972 79.6313C651.972 83.7494 652.79 87.5042 654.395 91.1378C656.001 94.7714 658.182 97.9508 660.969 100.676C663.756 103.401 666.997 105.581 670.693 107.186C674.388 108.791 678.357 109.609 682.567 109.609C688.111 109.609 693.018 108.367 697.289 105.854C701.561 103.341 705.105 100.04 707.983 95.922L720.13 108.397H720.1Z" fill="#444444"/>
<path d="M794.074 92.1067C794.074 96.9818 793.165 101.494 791.378 105.642C789.591 109.79 787.107 113.394 783.956 116.422C780.806 119.45 777.11 121.842 772.869 123.628C768.628 125.385 764.115 126.263 759.328 126.263C754.542 126.263 750.029 125.385 745.848 123.628C741.638 121.872 737.972 119.45 734.822 116.391C731.671 113.333 729.187 109.699 727.4 105.551C725.613 101.403 724.704 96.9213 724.704 92.137C724.704 87.3528 725.613 82.9924 727.461 78.8138C729.309 74.6654 731.792 71.0318 734.943 67.9129C738.093 64.7941 741.759 62.3717 745.969 60.6154C750.15 58.8592 754.633 57.9811 759.359 57.9811C764.084 57.9811 768.658 58.8592 772.899 60.6154C777.14 62.3717 780.836 64.7638 783.986 67.8221C787.137 70.8804 789.621 74.4837 791.408 78.6624C793.195 82.8713 794.104 87.3528 794.104 92.137L794.074 92.1067ZM777.867 92.1067C777.867 89.321 777.383 86.7472 776.413 84.355C775.444 81.9629 774.111 79.8736 772.445 78.0568C770.779 76.2703 768.81 74.8471 766.568 73.8479C764.327 72.8486 761.934 72.3339 759.389 72.3339C756.844 72.3339 754.451 72.8486 752.21 73.8479C749.968 74.8471 747.999 76.2703 746.333 78.0568C744.667 79.8433 743.334 81.9629 742.365 84.355C741.395 86.7472 740.911 89.3513 740.911 92.1067C740.911 94.8622 741.395 97.4663 742.365 99.8584C743.334 102.251 744.667 104.34 746.333 106.157C747.999 107.974 749.968 109.366 752.21 110.366C754.451 111.365 756.844 111.88 759.389 111.88C761.934 111.88 764.327 111.365 766.568 110.366C768.81 109.366 770.779 107.943 772.445 106.157C774.141 104.37 775.444 102.251 776.413 99.8584C777.383 97.4663 777.867 94.8622 777.867 92.1067Z" fill="#444444"/>
<path d="M884.224 124.567V85.8085C884.224 81.2362 883.104 77.7843 880.922 75.4224C878.711 73.0606 875.985 71.8796 872.774 71.8796C870.29 71.8796 867.957 72.2733 865.746 73.0606C863.535 73.8478 861.384 75.1499 859.294 76.9364C859.96 79.5708 860.293 82.5079 860.293 85.8085V124.567H844.117V85.8085C844.117 81.2362 842.996 77.7843 840.815 75.4224C838.604 73.0606 835.938 71.8796 832.788 71.8796C830.304 71.8796 828.153 72.3036 826.275 73.1817C824.397 74.0295 822.458 75.4224 820.428 77.2695V124.567H804.252V59.6162H820.428V64.461C822.458 62.5231 824.851 60.9485 827.608 59.7373C830.334 58.5261 833.151 57.9508 835.999 57.9508C839.149 57.9508 842.33 58.6775 845.511 60.1007C848.691 61.5239 851.508 63.5829 853.902 66.2778C857.264 63.2801 860.687 61.1605 864.14 59.8584C867.594 58.5867 871.38 57.9508 875.5 57.9508C878.863 57.9508 882.074 58.4656 885.133 59.4648C888.193 60.464 890.828 62.0992 893.07 64.3096C895.311 66.5201 897.129 69.3361 898.462 72.7275C899.825 76.1491 900.491 80.2369 900.491 85.0212V124.567H884.224Z" fill="#444444"/>
<path d="M975.162 92.2279C975.162 96.8002 974.405 101.13 972.86 105.248C971.315 109.366 969.164 112.97 966.378 116.089C963.591 119.207 960.289 121.66 956.472 123.507C952.625 125.354 948.444 126.263 943.84 126.263C940.993 126.263 938.327 125.869 935.843 125.082C933.359 124.294 931.026 123.053 928.845 121.327L928.966 152.788H912.669V59.5254H928.966L929.088 62.8865C930.966 61.4027 933.177 60.1915 935.782 59.2831C938.387 58.3747 941.083 57.9205 943.931 57.9205C947.899 57.9205 951.746 58.7986 955.503 60.5549C959.259 62.3111 962.591 64.7335 965.499 67.7918C968.407 70.8501 970.77 74.4837 972.527 78.6321C974.284 82.7805 975.162 87.2922 975.162 92.1673V92.2279ZM958.653 92.3187C958.653 89.2604 958.199 86.4746 957.29 83.9917C956.381 81.5087 955.139 79.3891 953.503 77.6329C951.898 75.8766 949.959 74.514 947.748 73.5753C945.536 72.6366 943.052 72.1824 940.356 72.1824C938.63 72.1824 936.661 72.5458 934.419 73.2422C932.208 73.969 930.33 74.9077 928.845 76.1189V107.247C932.389 110.456 936.327 112.092 940.69 112.092C943.234 112.092 945.627 111.607 947.869 110.638C950.08 109.669 951.989 108.307 953.564 106.55C955.139 104.794 956.381 102.705 957.29 100.252C958.199 97.8297 958.653 95.165 958.653 92.3187Z" fill="#444444"/>
<path d="M1037.99 124.567H1021.81V121.085C1018.97 123.023 1015.94 124.385 1012.76 125.142C1009.57 125.899 1006.3 126.263 1002.91 126.263C999.76 126.263 996.912 125.808 994.368 124.87C991.823 123.931 989.612 122.599 987.734 120.812C985.856 119.056 984.432 116.967 983.402 114.575C982.402 112.182 981.887 109.518 981.887 106.611C981.887 102.947 982.705 99.7373 984.311 97.0121C985.916 94.2869 988.097 91.9856 990.884 90.1688C993.671 88.3217 996.912 86.9591 1000.61 86.081C1004.3 85.2029 1008.3 84.7184 1012.57 84.7184H1021.9C1021.9 80.9031 1020.66 77.8751 1018.21 75.6041C1015.72 73.3634 1012.18 72.243 1007.51 72.243C1005.27 72.243 1002.94 72.6669 1000.55 73.4845C998.154 74.302 995.761 75.816 993.338 77.9659L983.796 68.3066C987.249 65.0061 991.248 62.4625 995.761 60.676C1000.31 58.8895 1004.97 57.9811 1009.76 57.9811C1014.24 57.9811 1018.27 58.7078 1021.75 60.131C1025.27 61.5541 1028.08 63.4012 1030.26 65.6419C1033.08 68.4883 1035.08 71.6677 1036.23 75.1802C1037.38 78.6927 1037.96 83.2044 1037.96 88.6548V124.628L1037.99 124.567ZM1021.81 96.3762H1014.39C1012.15 96.3762 1010.03 96.5276 1008.03 96.8304C1006.03 97.1332 1004.33 97.648 1002.85 98.3444C1001.4 99.0712 1000.21 99.9796 999.366 101.1C998.488 102.22 998.064 103.583 998.064 105.157C998.064 107.398 998.942 109.245 1000.7 110.668C1002.46 112.092 1004.73 112.818 1007.51 112.818C1009.91 112.818 1012.3 112.455 1014.66 111.698C1017.03 110.941 1019.39 109.851 1021.81 108.428V96.3762Z" fill="#444444"/>
<path d="M1109.6 124.567H1093.42V85.8085C1093.42 83.4769 1093.06 81.4481 1092.36 79.6919C1091.64 77.9356 1090.7 76.4822 1089.49 75.3013C1088.27 74.1506 1086.91 73.2725 1085.37 72.7275C1083.82 72.1824 1082.22 71.8796 1080.58 71.8796C1078.1 71.8796 1075.64 72.3036 1073.25 73.1817C1070.86 74.0295 1068.65 75.4224 1066.71 77.2695V124.567H1050.53V59.6162H1066.71L1066.83 64.461C1067.8 63.492 1069.01 62.5836 1070.43 61.7661C1071.86 60.9485 1073.34 60.2521 1074.89 59.6768C1076.43 59.1014 1078.01 58.6775 1079.61 58.3747C1081.22 58.0719 1082.76 57.9205 1084.28 57.9205C1087.58 57.9205 1090.73 58.4353 1093.79 59.4951C1096.82 60.5549 1099.51 62.1597 1101.88 64.3399C1104.24 66.5201 1106.12 69.3361 1107.54 72.7578C1108.96 76.2097 1109.69 80.2975 1109.69 84.9909V124.537L1109.6 124.567Z" fill="#444444"/>
<path d="M1181 59.5254L1151.77 136.709C1149.59 142.463 1146.74 146.641 1143.23 149.185C1139.71 151.728 1135.5 153 1130.62 153C1129.87 153 1129.05 152.939 1128.14 152.818C1127.23 152.697 1126.38 152.546 1125.56 152.304L1120.17 137.254C1121.44 137.86 1122.75 138.314 1124.11 138.647C1125.47 138.98 1126.75 139.162 1127.93 139.162C1130.47 139.162 1132.8 138.587 1134.89 137.406C1136.99 136.255 1138.59 134.105 1139.74 130.956L1141.98 124.446L1116.9 59.4951H1134.56L1149.53 101.282L1163.58 59.4951H1181V59.5254Z" fill="#444444"/>
</svg>
